<svg xmlns="http://www.w3.org/2000/svg" xmlns:xlink="http://www.w3.org/1999/xlink" width="500" zoomAndPan="magnify" viewBox="0 0 375 374.999991" height="500" preserveAspectRatio="xMidYMid meet" version="1.0"><rect x="-37.5" width="450" fill="#ffffff" y="-37.499999" height="449.999989" fill-opacity="1"/><rect x="-37.5" width="450" fill="#bfe1f8" y="-37.499999" height="449.999989" fill-opacity="1"/><path fill="#000000" d="M 359.847656 245 C 352.160156 242.476562 344.074219 242.230469 336.042969 241.441406 C 326.640625 240.515625 317.234375 239.605469 307.832031 238.679688 C 299.332031 237.851562 290.820312 237.109375 282.34375 236.09375 C 276.484375 235.394531 267.878906 235.242188 262.898438 231.558594 C 259.070312 228.734375 260.128906 222.054688 260.125 218.027344 C 260.113281 208.558594 260.144531 199.089844 260.214844 189.617188 C 260.277344 180.875 260.359375 172.132812 260.460938 163.390625 C 260.5625 154.957031 260.027344 145.75 262.527344 137.566406 C 264.742188 130.324219 271.644531 130.335938 277.902344 130.898438 C 287.09375 131.722656 296.285156 132.570312 305.441406 133.742188 C 313.875 134.820312 322.28125 136.167969 330.585938 138.015625 C 334.75 138.945312 338.894531 139.996094 342.988281 141.199219 C 346.71875 142.292969 351.65625 145.070312 355.621094 144.597656 C 361.207031 143.914062 365.203125 136.046875 362.199219 131.152344 C 358.667969 125.402344 347.878906 123.667969 341.867188 122.339844 C 324.96875 118.597656 307.050781 118.222656 289.875 116.15625 C 283.523438 115.394531 273.449219 115.835938 268.9375 110.363281 C 264.222656 104.644531 267.140625 93.449219 267.558594 86.6875 C 268.691406 68.539062 269.835938 50.398438 270.917969 32.246094 C 271.160156 28.121094 272.324219 15.972656 264.800781 17.035156 C 256.632812 18.191406 257.832031 30.664062 257.582031 36.5 C 256.800781 54.199219 257.722656 72.105469 255.273438 89.679688 C 254.457031 95.519531 254.476562 105.925781 249.390625 109.941406 C 246.871094 111.933594 243.8125 111.808594 240.777344 111.703125 C 235.675781 111.53125 230.570312 111.386719 225.46875 111.234375 C 207.238281 110.699219 188.972656 110.078125 170.855469 107.777344 C 161.578125 106.601562 152.691406 106.074219 152.320312 94.996094 C 151.78125 78.859375 154.511719 62.339844 155.644531 46.25 C 156.136719 39.296875 157.789062 30.929688 152.453125 25.566406 C 149.691406 22.800781 147.085938 26.589844 146.753906 29.089844 C 146.054688 34.277344 145.460938 39.476562 144.90625 44.683594 C 143.988281 53.328125 143.136719 61.976562 142.273438 70.625 C 141.390625 79.519531 141.332031 89.070312 139.390625 97.792969 C 137.847656 104.742188 130.976562 104.777344 125.128906 104.957031 C 116.039062 105.238281 106.765625 103.925781 97.707031 103.230469 C 79.632812 101.847656 61.527344 100.625 43.488281 98.875 C 35.117188 98.0625 26.753906 97.082031 18.355469 96.605469 C 10.726562 96.167969 9.054688 106.238281 15.421875 109.460938 C 22.113281 112.851562 31.371094 112.28125 38.644531 113.167969 C 48.074219 114.3125 57.484375 115.625 66.925781 116.710938 C 84.878906 118.773438 102.777344 118.519531 120.773438 119.664062 C 126.484375 120.027344 136.71875 118.71875 138.003906 126.476562 C 139.347656 134.566406 136.765625 144.367188 136.335938 152.550781 C 135.863281 161.535156 135.4375 170.519531 135.015625 179.507812 C 134.574219 188.882812 135.039062 198.863281 133.527344 208.128906 C 132.765625 212.792969 131.546875 219.445312 126.25 220.933594 C 123.199219 221.785156 119.84375 221.074219 116.769531 220.769531 C 111.667969 220.261719 106.550781 219.769531 101.441406 219.296875 C 83.191406 217.621094 64.914062 216.210938 46.613281 215.328125 C 38.390625 214.925781 30.121094 214.390625 21.890625 214.949219 C 18.667969 215.167969 16.132812 217.199219 17.347656 220.742188 C 18.542969 224.222656 22.613281 226.199219 25.96875 226.839844 C 43.339844 230.144531 61.710938 230.347656 79.292969 232.34375 C 87.789062 233.308594 96.257812 234.402344 104.71875 235.628906 C 111.273438 236.582031 122.46875 236.117188 127.507812 241.027344 C 132.292969 245.699219 130.265625 254.355469 130.007812 260.238281 C 129.597656 269.535156 129.09375 278.84375 128.625 288.144531 C 128.230469 295.898438 127.589844 303.589844 127.164062 311.59375 C 126.703125 320.273438 125.230469 329.667969 126.261719 338.324219 C 126.625 341.34375 127.707031 344.085938 130.730469 345.296875 C 132.804688 346.125 136.261719 344.53125 136.960938 342.359375 C 139.628906 334.128906 138.214844 324.59375 138.214844 316.082031 C 138.214844 297.808594 138.851562 279.523438 140.539062 261.320312 C 141.023438 256.070312 140.53125 247.953125 144.199219 243.597656 C 147.609375 239.550781 155.285156 240.667969 159.875 240.722656 C 168.121094 240.820312 176.441406 243.234375 184.707031 243.851562 C 194.023438 244.546875 203.382812 244.695312 212.691406 245.488281 C 221.015625 246.195312 229.25 247.574219 237.464844 249.058594 C 240.800781 249.664062 244.457031 249.871094 246.265625 253.203125 C 248.195312 256.757812 247.550781 262.488281 247.761719 266.433594 C 248.726562 284.21875 246.46875 302.378906 244.519531 320.046875 C 243.554688 328.734375 242.421875 337.402344 241.054688 346.035156 C 240.480469 349.632812 236.957031 365.984375 243.46875 366.238281 C 252.679688 366.59375 252.183594 357.449219 252.894531 350.554688 C 253.828125 341.4375 254.398438 332.308594 254.964844 323.171875 C 256.125 304.285156 257.207031 285.394531 258.269531 266.503906 C 258.503906 262.226562 258.746094 256.597656 262.148438 253.476562 C 265.558594 250.34375 271.15625 250.8125 275.390625 251.179688 C 293.613281 252.757812 311.683594 256.011719 329.898438 257.75 C 339.132812 258.625 348.363281 259.40625 357.601562 260.21875 C 364.945312 260.835938 366.25 247.125 359.847656 245 C 357.714844 244.300781 362.710938 245.953125 359.847656 245 Z M 249.363281 166.304688 C 248.882812 174.476562 247.609375 180.925781 247.632812 188.8125 C 247.664062 198.582031 247.714844 208.351562 247.601562 218.117188 C 247.542969 223.921875 247.351562 230.695312 240.253906 231.914062 C 232.144531 233.296875 222.222656 230.832031 214.050781 230.144531 C 196.230469 228.648438 178.460938 228.0625 160.773438 225.128906 C 155.867188 224.316406 148.070312 224.074219 145.054688 219.292969 C 141.6875 213.945312 143.171875 204.386719 143.351562 198.417969 C 143.910156 180.472656 145.996094 162.472656 147.457031 144.582031 C 147.964844 138.359375 146.875 128.429688 152.625 124.265625 C 158.777344 119.8125 169.976562 122.839844 176.910156 123.347656 C 195.148438 124.691406 213.382812 126.042969 231.621094 127.457031 C 237.289062 127.898438 247.257812 126.628906 250.109375 133.058594 C 251.546875 136.308594 250.757812 140.441406 250.613281 143.859375 C 250.394531 149.097656 250.085938 154.332031 249.769531 159.570312 C 249.632812 161.816406 249.492188 164.0625 249.363281 166.304688 C 249.097656 170.800781 249.9375 156.582031 249.363281 166.304688 Z M 249.363281 166.304688 " fill-opacity="1" fill-rule="nonzero"/><path fill="#5e17eb" d="M 200.046875 264.980469 C 185.121094 260.359375 167.316406 263.746094 160.28125 279.023438 C 155.015625 290.464844 157 304.691406 166.109375 313.613281 C 171.945312 319.332031 180.648438 323.492188 188.855469 320.960938 C 197.078125 318.429688 205.113281 313.390625 210.125 306.324219 C 214.773438 299.773438 216.179688 290.792969 213.6875 283.125 C 212.535156 279.59375 210.542969 276.410156 208.289062 273.484375 C 206.285156 270.890625 203.3125 265.96875 200.046875 264.980469 C 189.546875 261.730469 200.742188 265.1875 200.046875 264.980469 Z M 200.566406 296.992188 C 198.253906 302.523438 187.664062 306.601562 182.222656 307.226562 C 172.832031 308.3125 170.875 293.710938 172.1875 287.171875 C 175.695312 269.78125 207.265625 280.957031 200.566406 296.992188 C 198.796875 301.238281 201.394531 295.011719 200.566406 296.992188 Z M 307.609375 85.398438 C 317.234375 90.101562 325.09375 93.347656 334.710938 86.785156 C 342.582031 81.410156 352.121094 75.765625 357.128906 67.382812 C 365.914062 52.667969 360.257812 30.832031 344.144531 23.648438 C 336.109375 20.058594 327.320312 22.128906 320.210938 26.820312 C 315.613281 29.855469 311.238281 33.210938 306.71875 36.363281 C 302.636719 39.207031 297.390625 41.394531 294.519531 45.625 C 290.644531 51.328125 291.058594 61.332031 292.535156 67.800781 C 294.390625 75.929688 300.285156 81.828125 307.609375 85.398438 C 310.3125 86.71875 297.15625 80.296875 307.609375 85.398438 Z M 314.078125 47.476562 C 320.71875 42.316406 330.375 37.898438 338.960938 39.414062 C 350.878906 41.523438 349.058594 54.367188 344.167969 62.347656 C 338.714844 71.242188 326.730469 77.710938 316.5 73.300781 C 304.285156 68.042969 304.367188 55.03125 314.078125 47.476562 C 324.164062 39.636719 310.972656 49.898438 314.078125 47.476562 Z M 297.246094 155.21875 C 279.316406 155.414062 274.382812 172.171875 275.699219 187.246094 C 276.394531 195.160156 278.195312 201.539062 285.121094 206.230469 C 292.636719 211.324219 301.847656 214.457031 310.984375 213.117188 C 326.4375 210.84375 335.921875 195.628906 335.675781 180.664062 C 335.382812 163.203125 311.496094 155.054688 297.246094 155.21875 C 285.261719 155.351562 309.902344 155.070312 297.246094 155.21875 Z M 311.644531 199.023438 C 304.875 202.738281 294.492188 198.769531 291.507812 191.855469 C 289.652344 187.539062 290.664062 181.667969 291.09375 177.140625 C 291.46875 173.1875 292.878906 170.332031 296.6875 168.652344 C 305.828125 164.621094 314.101562 170.980469 319.542969 177.964844 C 324.796875 184.648438 317.507812 195.796875 311.644531 199.023438 C 306.523438 201.832031 318.570312 195.214844 311.644531 199.023438 Z M 197.085938 81.28125 C 204.386719 83.648438 213.511719 86.394531 220.414062 81.527344 C 227.316406 76.65625 231.085938 65.96875 234.785156 58.6875 C 237.917969 52.460938 233.707031 42.117188 230.589844 36.589844 C 226.511719 29.359375 219.296875 22.097656 210.707031 21.050781 C 194.683594 19.101562 180.855469 35.980469 178.742188 50.386719 C 176.570312 65.15625 182.839844 76.644531 197.085938 81.28125 C 200.625 82.429688 184.078125 77.042969 197.085938 81.28125 Z M 202.125 36.03125 C 211.53125 29.589844 220.761719 39.640625 223.035156 48.390625 C 225.269531 57.011719 218.5625 69.300781 209.941406 71.878906 C 201.648438 74.355469 194.238281 68.535156 192.667969 60.535156 C 190.792969 51.085938 194.082031 41.542969 202.125 36.03125 C 206.546875 33.003906 194.683594 41.125 202.125 36.03125 Z M 202.125 36.03125 " fill-opacity="1" fill-rule="nonzero"/><path fill="#ed2652" d="M 35.886719 73.683594 C 35.550781 73.738281 35.226562 73.800781 34.898438 73.859375 C 27.859375 74.175781 26.972656 66.667969 31.417969 62.695312 C 37.058594 57.65625 44.007812 54.097656 50.148438 49.71875 C 54.085938 46.917969 59.53125 43.269531 57.421875 37.730469 C 54.992188 31.34375 49.4375 26.214844 45.863281 20.460938 C 43.804688 17.15625 43.664062 12.617188 47.273438 10.371094 C 50.214844 8.539062 53.597656 10.414062 55.832031 12.890625 C 60.363281 17.910156 64.023438 23.730469 68.878906 28.464844 C 78.511719 37.847656 90.816406 14.019531 98.335938 24.613281 C 103.0625 31.222656 91.300781 36.972656 87.40625 40.378906 C 82.46875 44.695312 82.3125 49.09375 84.957031 54.867188 C 88.59375 62.808594 93.296875 68.515625 92.382812 77.636719 C 91.675781 84.804688 82.832031 79.542969 80.664062 76.847656 C 76.941406 72.21875 73.9375 55.195312 65.4375 56.621094 C 61.082031 57.355469 57.015625 60.773438 53.503906 63.203125 C 47.820312 67.125 42.457031 71.472656 35.886719 73.683594 C 33.515625 74.488281 37.292969 73.210938 35.886719 73.683594 Z M 83.851562 264.640625 C 77.890625 263.867188 72.882812 271.898438 67.570312 273.722656 C 61.214844 275.90625 58.164062 269.554688 56.0625 264.769531 C 53.792969 259.566406 51.710938 250.351562 45.570312 248.386719 C 38.289062 246.0625 35.785156 254.152344 38.054688 259.640625 C 42.296875 269.851562 54.316406 284.765625 43.363281 294.03125 C 38.320312 298.304688 31.214844 301.722656 27.25 307.082031 C 22.035156 314.136719 30.589844 319.109375 36.808594 316.335938 C 43.359375 313.414062 52.945312 298.648438 59.097656 311.179688 C 61.074219 315.203125 61.46875 319.820312 64.621094 323.226562 C 68.65625 327.578125 77.191406 326.550781 77.527344 319.589844 C 78.015625 309.574219 65.816406 298.902344 71.855469 289.015625 C 74.679688 284.398438 79.433594 281.15625 83.523438 277.765625 C 86.96875 274.917969 91.832031 265.679688 83.851562 264.640625 C 82.578125 264.476562 86.992188 265.054688 83.851562 264.640625 Z M 215.660156 149.625 C 211.453125 152.59375 207.695312 155.753906 203.757812 159.058594 C 201.34375 161.078125 197.730469 163.875 194.429688 162.167969 C 188.1875 158.929688 186.867188 143.824219 177.324219 147.363281 C 167.101562 151.144531 179.914062 166.375 180.039062 172.621094 C 180.140625 177.875 176.191406 181.449219 172.695312 184.769531 C 169.972656 187.355469 166.484375 192.523438 170.992188 195.480469 C 179.699219 201.210938 185.335938 183.421875 194.835938 192.332031 C 198.75 196.011719 201.746094 198.609375 206.789062 200.398438 C 210.046875 200.550781 214.886719 197.398438 214.546875 193.699219 C 214.113281 188.945312 208.554688 184.550781 206.894531 180.125 C 205.023438 175.144531 207.519531 171.597656 211.214844 168.527344 C 215.164062 165.246094 220.234375 161.761719 222.394531 156.921875 C 224.097656 153.050781 220.019531 146.542969 215.660156 149.625 C 212.621094 151.765625 217.914062 148.03125 215.660156 149.625 Z M 215.660156 149.625 " fill-opacity="1" fill-rule="nonzero"/></svg>